<?xml version="1.0" standalone="no"?>
<!DOCTYPE svg PUBLIC "-//W3C//DTD SVG 20010904//EN"
 "http://www.w3.org/TR/2001/REC-SVG-20010904/DTD/svg10.dtd">
<svg version="1.0" xmlns="http://www.w3.org/2000/svg"
 width="129.000000pt" height="129.000000pt" viewBox="0 0 129.000000 129.000000"
 preserveAspectRatio="xMidYMid meet">
<metadata>
Created by potrace 1.11, written by Peter Selinger 2001-2013
</metadata>
<g transform="translate(0.000000,129.000000) scale(0.100000,-0.100000)"
fill="#00ca0d" stroke="none">
<path d="M0 650 l0 -640 645 0 645 0 0 640 0 640 -645 0 -645 0 0 -640z m1270
0 l0 -630 -625 0 -625 0 0 630 0 630 625 0 625 0 0 -630z"/>
<path d="M60 650 l0 -580 585 0 585 0 0 580 0 580 -585 0 -585 0 0 -580z m725
527 c16 -75 158 -244 248 -297 l48 -27 -56 -32 -56 -32 63 -73 c35 -40 87
-101 117 -135 l53 -61 -38 -17 c-22 -9 -72 -18 -111 -21 l-73 -5 0 -148 0
-149 80 0 80 0 0 -40 0 -40 -525 0 -525 0 0 40 c0 40 0 40 38 40 37 0 38 2 51
48 7 26 15 55 18 65 5 14 -2 17 -41 17 -39 0 -46 3 -46 20 0 18 7 20 55 20
l54 0 22 75 c21 73 30 83 57 67 10 -7 10 -16 -1 -48 -8 -21 -17 -51 -21 -66
l-6 -28 70 0 c38 0 70 1 70 3 0 1 -9 31 -20 66 -11 36 -18 66 -17 67 1 1 11 4
23 8 19 6 23 -1 43 -69 l22 -75 54 0 c48 0 55 -3 55 -19 0 -17 -8 -20 -48 -23
l-48 -3 18 -63 19 -62 188 0 188 0 8 121 c4 66 5 123 2 125 -3 3 -54 -4 -113
-15 -137 -26 -142 -26 -121 -3 25 27 54 100 82 203 14 52 25 97 25 102 0 4
-23 7 -51 7 -45 0 -50 2 -44 18 56 137 85 272 85 392 0 91 12 112 25 47z"/>
<path d="M237 257 c-9 -30 -17 -59 -17 -65 0 -9 36 -12 121 -12 113 0 120 1
114 19 -3 10 -11 38 -18 62 l-13 44 -85 3 -85 3 -17 -54z"/>
</g>
</svg>
