<?xml version="1.0" standalone="no"?>
<!DOCTYPE svg PUBLIC "-//W3C//DTD SVG 20010904//EN"
 "http://www.w3.org/TR/2001/REC-SVG-20010904/DTD/svg10.dtd">
<svg version="1.0" xmlns="http://www.w3.org/2000/svg"
 width="131.000000pt" height="125.000000pt" viewBox="0 0 131.000000 125.000000"
 preserveAspectRatio="xMidYMid meet">
<metadata>
Created by potrace 1.11, written by Peter Selinger 2001-2013
</metadata>
<g transform="translate(0.000000,125.000000) scale(0.100000,-0.100000)"
fill="#000000" stroke="none">
<path d="M541 1240 c-223 -47 -390 -171 -478 -355 -81 -171 -81 -349 0 -520
59 -123 160 -226 283 -288 373 -188 823 -3 940 389 24 80 24 238 0 319 -81
268 -317 448 -606 460 -52 2 -115 0 -139 -5z m205 -11 c255 -35 459 -210 529
-454 21 -69 23 -218 6 -282 l-12 -43 -209 0 -210 0 0 70 0 69 97 3 97 3 -182
158 c-151 132 -185 157 -197 147 -13 -10 -15 -8 -15 14 l0 26 120 0 120 0 0
95 0 95 -125 0 -125 0 -1 -127 0 -128 -172 -140 -172 -140 93 -3 92 -3 0 -69
0 -70 -220 0 -219 0 -12 43 c-15 54 -15 209 0 267 73 277 314 465 613 479 15
0 61 -4 104 -10z m-504 -935 l-3 -137 -41 39 c-59 57 -148 195 -148 230 0 2
44 4 98 4 l97 0 -3 -136z m158 -44 c0 -140 -3 -180 -13 -180 -7 0 -38 16 -70
36 l-57 36 0 144 0 144 70 0 70 0 0 -180z m160 -25 l0 -206 -37 7 c-21 4 -54
12 -73 19 l-35 12 -3 186 -2 187 75 0 75 0 0 -205z m180 1 l0 -205 -45 -7
c-25 -3 -61 -3 -80 0 l-35 7 0 204 0 205 80 0 80 0 0 -204z m158 17 l-3 -186
-35 -12 c-19 -6 -50 -15 -67 -18 l-33 -6 0 204 0 205 70 0 70 0 -2 -187z m182
53 l0 -134 -72 -46 c-39 -25 -77 -46 -85 -46 -10 0 -13 37 -13 180 l0 180 85
0 85 0 0 -134z m180 128 c0 -22 -82 -156 -122 -198 l-47 -51 -1 128 0 127 85
0 c47 0 85 -3 85 -6z"/>
</g>
</svg>
