<?xml version="1.0" standalone="no"?>
<!DOCTYPE svg PUBLIC "-//W3C//DTD SVG 20010904//EN"
 "http://www.w3.org/TR/2001/REC-SVG-20010904/DTD/svg10.dtd">
<svg version="1.0" xmlns="http://www.w3.org/2000/svg"
 width="126.000000pt" height="119.000000pt" viewBox="0 0 126.000000 119.000000"
 preserveAspectRatio="xMidYMid meet">
<metadata>
Created by potrace 1.11, written by Peter Selinger 2001-2013
</metadata>
<g transform="translate(0.000000,119.000000) scale(0.100000,-0.100000)"
fill="#000000" stroke="none">
<path d="M495 1175 c-38 -8 -107 -33 -154 -55 -110 -53 -232 -171 -279 -271
-63 -133 -77 -258 -42 -393 28 -109 74 -189 155 -271 249 -249 655 -247 905 4
183 184 223 444 104 671 -124 238 -417 372 -689 315z m330 -54 c237 -80 394
-292 395 -531 0 -200 -126 -398 -313 -490 -249 -122 -518 -81 -708 109 -89 89
-131 167 -156 286 -61 302 166 605 492 654 89 14 199 3 290 -28z"/>
<path d="M778 924 l-78 -46 -109 26 -110 26 -100 -63 c-70 -42 -101 -68 -101
-80 0 -11 7 -46 16 -79 8 -33 14 -61 12 -62 -2 -2 -56 -33 -121 -71 -65 -38
-116 -71 -115 -75 8 -20 125 -159 133 -160 6 0 74 36 153 80 l144 81 28 -28
29 -29 -174 -104 c-96 -58 -175 -108 -175 -112 0 -4 4 -10 10 -13 7 -5 896
518 919 541 3 2 0 9 -6 15 -8 8 -73 -26 -237 -124 -207 -125 -226 -134 -226
-112 0 13 -3 30 -6 38 -4 11 52 51 208 147 265 165 248 153 239 169 -6 10 -45
-10 -152 -77 -79 -49 -145 -89 -146 -88 -1 1 6 29 17 63 17 56 38 184 29 183
-2 -1 -39 -21 -81 -46z m-184 -52 l70 -17 -155 -90 c-85 -50 -158 -90 -164
-90 -8 0 -38 106 -32 111 41 33 169 103 187 103 14 0 56 -8 94 -17z m36 -282
c28 -28 27 -84 -2 -104 -33 -23 -74 -20 -92 6 -34 49 -5 118 49 118 14 0 34
-9 45 -20z"/>
</g>
</svg>
