<?xml version="1.0" standalone="no"?>
<!DOCTYPE svg PUBLIC "-//W3C//DTD SVG 20010904//EN"
 "http://www.w3.org/TR/2001/REC-SVG-20010904/DTD/svg10.dtd">
<svg version="1.0" xmlns="http://www.w3.org/2000/svg"
 width="120.000000pt" height="120.000000pt" viewBox="0 0 120.000000 120.000000"
 preserveAspectRatio="xMidYMid meet">
<metadata>
Created by potrace 1.11, written by Peter Selinger 2001-2013
</metadata>
<g transform="translate(0.000000,120.000000) scale(0.100000,-0.100000)"
fill="#00ca0d" stroke="none">
<path d="M7 1193 c-4 -3 -7 -273 -7 -600 l0 -593 595 0 595 0 0 600 0 600
-588 0 c-324 0 -592 -3 -595 -7z m1173 -593 l0 -580 -580 0 -580 0 0 580 0
580 580 0 580 0 0 -580z"/>
<path d="M60 600 l0 -540 540 0 540 0 0 540 0 540 -540 0 -540 0 0 -540z
m1010 370 c0 -19 -7 -20 -150 -20 -113 0 -150 -3 -150 -12 0 -7 18 -80 38
-163 l38 -150 122 -3 122 -3 0 -49 0 -50 -105 0 c-66 0 -105 -4 -105 -10 0 -6
18 -82 40 -170 22 -88 40 -166 40 -174 0 -14 -66 -43 -76 -33 -3 3 -25 82 -49
177 -24 94 -47 180 -50 191 -6 18 -17 19 -190 19 l-183 0 -11 -32 c-5 -18 -29
-103 -52 -188 -23 -85 -42 -156 -44 -158 -3 -3 -68 19 -77 27 -4 3 13 78 38
166 24 88 44 166 44 173 0 9 -27 12 -100 12 l-100 0 0 50 0 49 118 3 117 3 42
150 c23 83 42 156 42 162 1 9 -38 13 -146 15 -131 3 -148 5 -151 21 -3 16 24
17 467 17 464 0 471 0 471 -20z"/>
<path d="M525 938 c-8 -25 -85 -305 -85 -311 0 -4 70 -7 155 -7 117 0 155 3
155 13 0 6 -18 80 -38 162 l-38 150 -72 3 c-52 2 -74 -1 -77 -10z"/>
</g>
</svg>
