<?xml version="1.0" standalone="no"?>
<!DOCTYPE svg PUBLIC "-//W3C//DTD SVG 20010904//EN"
 "http://www.w3.org/TR/2001/REC-SVG-20010904/DTD/svg10.dtd">
<svg version="1.0" xmlns="http://www.w3.org/2000/svg"
 width="134.000000pt" height="125.000000pt" viewBox="0 0 134.000000 125.000000"
 preserveAspectRatio="xMidYMid meet">
<metadata>
Created by potrace 1.11, written by Peter Selinger 2001-2013
</metadata>
<g transform="translate(0.000000,125.000000) scale(0.100000,-0.100000)"
fill="#2e6e12" stroke="none">
<path d="M520 954 c-88 -87 -158 -159 -156 -162 5 -4 154 13 209 24 22 4 27 2
27 -13 0 -13 -51 -50 -175 -127 -97 -59 -175 -110 -173 -111 2 -2 81 7 176 19
114 15 171 19 169 12 -2 -6 -96 -65 -210 -131 -113 -66 -204 -121 -203 -123 2
-1 90 9 196 23 106 14 199 25 207 25 10 0 13 -27 13 -125 l0 -125 75 0 75 0 0
125 c0 123 0 125 23 124 12 0 104 -8 205 -18 116 -11 178 -13 169 -6 -8 5
-100 57 -205 115 -105 58 -192 110 -192 116 0 7 46 6 148 -3 81 -8 157 -12
170 -11 17 2 -23 30 -147 101 -131 76 -171 103 -171 119 0 16 5 19 28 14 15
-3 67 -8 117 -12 l90 -7 -144 152 c-79 83 -148 154 -152 157 -5 3 -81 -66
-169 -152z"/>
</g>
</svg>
